<svg width="49" height="49" viewBox="0 0 49 49" fill="none" xmlns="http://www.w3.org/2000/svg">
<rect width="48.3802" height="48.3802" rx="24.1901" fill="#F79EFA"/>
<path d="M40.7123 15.9568L32.9794 9.79144V14.2403H26.4361C25.5553 14.242 24.7112 14.5983 24.0885 15.2313C23.4658 15.8642 23.1154 16.722 23.1141 17.6169L23.1063 30.0605C23.1683 31.4292 22.8118 32.2796 21.9994 32.277H18.6541C18.4269 31.1645 17.8016 30.1772 16.8993 29.506C15.997 28.8348 14.8818 28.5274 13.7694 28.6433C12.657 28.7593 11.6264 29.2902 10.877 30.1335C10.1276 30.9768 9.71257 32.0726 9.71228 33.2088C9.71262 33.8115 9.8299 34.4082 10.0574 34.9648C10.2849 35.5214 10.6182 36.027 11.0382 36.4526C11.4582 36.8782 11.9566 37.2156 12.505 37.4453C13.0534 37.675 13.641 37.7926 14.2342 37.7914C15.2051 37.7907 16.15 37.4726 16.9292 36.8841C17.7084 36.2957 18.2806 35.4681 18.5611 34.5237H22.002C24.1551 34.5657 25.4248 33.4017 25.3253 30.0578L25.3318 17.613C25.3328 17.3148 25.4499 17.0291 25.6575 16.8184C25.8652 16.6077 26.1465 16.489 26.44 16.4883H32.982V22.1221L40.7123 15.9568ZM12.0501 33.2048C12.0501 32.9134 12.1065 32.6248 12.2163 32.3555C12.326 32.0862 12.4869 31.8416 12.6897 31.6355C12.8925 31.4294 13.1333 31.2659 13.3983 31.1544C13.6633 31.0428 13.9474 30.9854 14.2342 30.9854C14.5211 30.9854 14.8051 31.0428 15.0701 31.1544C15.3351 31.2659 15.5759 31.4294 15.7787 31.6355C15.9815 31.8416 16.1424 32.0862 16.2521 32.3555C16.3619 32.6248 16.4184 32.9134 16.4183 33.2048C16.4183 33.7933 16.1881 34.3577 15.7785 34.7738C15.3689 35.19 14.8134 35.4237 14.2342 35.4237C13.655 35.4237 13.0995 35.19 12.6899 34.7738C12.2803 34.3577 12.0502 33.7933 12.0501 33.2048Z" fill="black"/>
</svg>
