<svg width="28" height="29" viewBox="0 0 28 29" fill="none" xmlns="http://www.w3.org/2000/svg">
<path d="M21.2182 7.32436C21.2182 7.15932 21.3464 7.02478 21.5058 7.02478H22.3718C22.5312 7.02478 22.6611 7.15932 22.6611 7.32436V8.2213C22.6611 8.30076 22.6306 8.37696 22.5763 8.43314C22.5221 8.48932 22.4485 8.52088 22.3718 8.52088H21.5058C21.4293 8.52041 21.3562 8.48864 21.3023 8.43251C21.2485 8.37638 21.2182 8.30045 21.2182 8.2213V7.32436ZM21.2182 10.3148C21.2182 10.1497 21.3464 10.0152 21.5058 10.0152H22.3718C22.5312 10.0152 22.6611 10.1497 22.6611 10.3148V11.2117C22.6606 11.2909 22.6299 11.3666 22.5757 11.4224C22.5215 11.4782 22.4482 11.5095 22.3718 11.5095H21.5058C21.4296 11.509 21.3568 11.4775 21.3029 11.4218C21.2491 11.366 21.2187 11.2905 21.2182 11.2117V10.3148ZM21.2182 13.3034C21.2182 13.1384 21.3464 13.0056 21.5058 13.0056H22.3718C22.5312 13.0056 22.6611 13.1384 22.6611 13.3034V14.2003C22.6611 14.2798 22.6306 14.356 22.5763 14.4122C22.5221 14.4684 22.4485 14.4999 22.3718 14.4999H21.5058C21.4293 14.4994 21.3562 14.4677 21.3023 14.4115C21.2485 14.3554 21.2182 14.2795 21.2182 14.2003V13.3034ZM22.6611 16.2938C22.6611 16.1288 22.791 15.9942 22.9503 15.9942H23.8164C23.9757 15.9942 24.1039 16.1288 24.1039 16.2938V17.1907C24.1039 17.2699 24.0737 17.3458 24.0198 17.4019C23.9659 17.4581 23.8928 17.4899 23.8164 17.4903H22.9503C22.8736 17.4903 22.8 17.4588 22.7458 17.4026C22.6915 17.3464 22.6611 17.2702 22.6611 17.1907V16.2938ZM21.2182 19.2842C21.2182 19.1192 21.3464 18.9846 21.5058 18.9846H22.3718C22.5312 18.9846 22.6611 19.1192 22.6611 19.2842V20.1812C22.6606 20.2603 22.6299 20.336 22.5757 20.3918C22.5215 20.4476 22.4482 20.4789 22.3718 20.4789H21.5058C21.4296 20.4785 21.3568 20.4469 21.3029 20.3912C21.2491 20.3355 21.2187 20.26 21.2182 20.1812V19.2842ZM18.3308 10.3148C18.3308 10.1497 18.4607 10.0152 18.6201 10.0152H19.4861C19.6455 10.0152 19.7737 10.1497 19.7737 10.3148V11.2117C19.7732 11.2905 19.7428 11.366 19.6889 11.4218C19.6351 11.4775 19.5622 11.509 19.4861 11.5095H18.6201C18.5437 11.5095 18.4703 11.4782 18.4161 11.4224C18.3619 11.3666 18.3313 11.2909 18.3308 11.2117V10.3148Z" fill="white"/>
<path d="M1.29908 14.5C1.29908 13.2622 1.29562 12.2271 1.40301 11.4073C1.51213 10.5588 1.75636 9.78742 2.35567 9.16673C2.95498 8.54605 3.69978 8.29311 4.5208 8.18009C5.31064 8.06887 6.30833 8.07246 7.50521 8.07246C8.70036 8.07246 9.69978 8.06887 10.4914 8.18009C11.3106 8.29311 12.0537 8.54605 12.6548 9.16673C13.2541 9.78742 13.4983 10.5588 13.6074 11.4091C13.7148 12.2271 13.7113 13.2604 13.7113 14.5H11.6917C11.6917 13.2012 11.69 12.3329 11.6051 11.6871C11.5254 11.07 11.3886 10.8135 11.2258 10.6467C11.0647 10.4781 10.817 10.3363 10.2211 10.252C9.59759 10.1659 8.75925 10.1623 7.50521 10.1623C6.25117 10.1623 5.41283 10.1659 4.78927 10.252C4.19343 10.3363 3.94574 10.4781 3.78465 10.6467C3.62183 10.8135 3.485 11.07 3.40359 11.6871C3.32045 12.3329 3.31698 13.2012 3.31698 14.5V27.9541H1.30082V14.5H1.29908Z" fill="white"/>
<path d="M19.4861 19.8817C19.4861 18.5829 19.4844 17.7147 19.3995 17.0689C19.3199 16.4518 19.183 16.1952 19.0202 16.0284C18.8591 15.8598 18.6114 15.7181 18.0156 15.6338C17.392 15.5476 16.5537 15.5459 15.2997 15.5459H12.7015C11.4475 15.5459 10.6091 15.5476 9.98556 15.6355C9.38972 15.7181 9.14203 15.8598 8.98094 16.0284C8.81812 16.1952 8.68129 16.4518 8.59988 17.0689C8.51674 17.7147 8.51501 18.5829 8.51501 19.8817V27.9542H6.49537V19.8817C6.49537 18.6439 6.49191 17.6088 6.5993 16.789C6.70842 15.9405 6.95265 15.1709 7.55196 14.5484C8.15126 13.9278 8.89607 13.6748 9.71709 13.5618C10.5069 13.4506 11.5046 13.4542 12.7015 13.4542H15.2997C16.4948 13.4542 17.4942 13.4506 18.2858 13.5618C19.1051 13.6748 19.8482 13.9278 20.4492 14.5484C21.0485 15.1709 21.2927 15.9405 21.4019 16.7908C21.5092 17.6088 21.5058 18.6421 21.5058 19.8817V27.9542H19.4861V19.8817Z" fill="white"/>
<path d="M24.6824 8.81503C24.6824 7.89118 24.6807 7.28126 24.6305 6.81485C24.582 6.37535 24.5005 6.16367 24.4001 6.01298C24.2979 5.8605 24.1368 5.70802 23.7557 5.5071C23.3522 5.29542 22.8031 5.08016 21.9665 4.75546H21.9647C20.3383 4.12402 19.228 3.69528 18.3793 3.50512C17.5548 3.32035 17.2153 3.42081 16.9936 3.58047C16.7702 3.74192 16.5623 4.03612 16.4393 4.89718C16.3129 5.78516 16.3094 7.01756 16.3094 8.81503V14.5035H14.2898V8.81503C14.2898 7.08573 14.2863 5.67035 14.4405 4.59401C14.5964 3.49436 14.9463 2.50413 15.84 1.86013H15.8418C16.739 1.21433 17.7575 1.22509 18.8054 1.4583C19.8325 1.68792 21.1108 2.18841 22.6749 2.79654L23.7731 3.23066C24.1056 3.36879 24.407 3.50333 24.6703 3.64325C25.2211 3.93028 25.6992 4.28188 26.0612 4.82004C26.4215 5.36 26.5687 5.95019 26.638 6.58344C26.7038 7.19336 26.7021 7.93782 26.7021 8.81503V27.9576H24.6824V8.81683V8.81503Z" fill="white"/>
<path d="M26.9914 26.9083L27.194 26.9298C27.4217 26.9784 27.6262 27.1069 27.773 27.2935C27.9198 27.4801 28 27.7134 28 27.9542C28 28.1949 27.9198 28.4282 27.773 28.6148C27.6262 28.8014 27.4217 28.9299 27.194 28.9785L26.9914 29H1.00982C0.741996 29 0.485145 28.8898 0.295768 28.6937C0.106391 28.4975 0 28.2315 0 27.9542C0 27.6768 0.106391 27.4108 0.295768 27.2146C0.485145 27.0185 0.741996 26.9083 1.00982 26.9083H26.9914ZM16.5987 21.5267L16.8014 21.5482C17.029 21.5968 17.2335 21.7252 17.3804 21.9118C17.5272 22.0984 17.6074 22.3318 17.6074 22.5725C17.6074 22.8132 17.5272 23.0466 17.3804 23.2332C17.2335 23.4198 17.029 23.5482 16.8014 23.5968L16.5987 23.6183H11.4024C11.1346 23.6183 10.8778 23.5081 10.6884 23.312C10.499 23.1159 10.3926 22.8499 10.3926 22.5725C10.3926 22.2951 10.499 22.0291 10.6884 21.833C10.8778 21.6368 11.1346 21.5267 11.4024 21.5267H16.5987ZM16.5987 17.4904L16.8014 17.5119C17.029 17.5605 17.2335 17.689 17.3804 17.8756C17.5272 18.0622 17.6074 18.2955 17.6074 18.5362C17.6074 18.777 17.5272 19.0103 17.3804 19.1969C17.2335 19.3835 17.029 19.512 16.8014 19.5606L16.5987 19.5821H11.4024C11.1346 19.5821 10.8778 19.4719 10.6884 19.2758C10.499 19.0796 10.3926 18.8136 10.3926 18.5362C10.3926 18.2589 10.499 17.9929 10.6884 17.7967C10.8778 17.6006 11.1346 17.4904 11.4024 17.4904H16.5987ZM10.3926 9.11833V7.10021C10.3926 6.43647 10.3909 6.04361 10.3545 5.76376C10.3473 5.69033 10.3316 5.61805 10.3077 5.5485L10.3025 5.54312C10.2354 5.51841 10.1656 5.50215 10.0947 5.49468C9.82622 5.4588 9.44516 5.45521 8.80428 5.45521H6.20612C5.56525 5.45521 5.18592 5.45701 4.91571 5.49468C4.84349 5.502 4.77247 5.51888 4.70439 5.54491C4.67926 5.61541 4.66296 5.68896 4.65589 5.76376C4.62125 6.04361 4.61779 6.43647 4.61779 7.10021V9.11833C4.61779 9.39571 4.5114 9.66172 4.32202 9.85785C4.13264 10.054 3.87579 10.1642 3.60797 10.1642C3.34015 10.1642 3.0833 10.054 2.89392 9.85785C2.70455 9.66172 2.59815 9.39571 2.59815 9.11833V7.10021C2.59815 6.49567 2.59469 5.93777 2.65358 5.48571C2.71594 5.00136 2.8649 4.48831 3.27541 4.06495L3.4313 3.91785C3.80716 3.60392 4.23846 3.47835 4.64723 3.42095C5.08372 3.35995 5.62241 3.36354 6.20612 3.36354H6.49539V1.04584C6.49539 0.768464 6.60178 0.502451 6.79115 0.306318C6.98053 0.110186 7.23738 0 7.5052 0C7.77302 0 8.02987 0.110186 8.21925 0.306318C8.40863 0.502451 8.51502 0.768464 8.51502 1.04584V3.36354H8.80428C9.388 3.36354 9.92668 3.35995 10.3632 3.42095C10.7719 3.47835 11.2032 3.60392 11.5791 3.91785L11.735 4.06495L11.877 4.2264C12.1801 4.61567 12.3014 5.06235 12.3568 5.48571C12.4157 5.93777 12.4122 6.49567 12.4122 7.10021V9.11833C12.4122 9.25568 12.3861 9.39167 12.3354 9.51856C12.2846 9.64544 12.2103 9.76074 12.1165 9.85785C12.0227 9.95497 11.9114 10.032 11.7889 10.0846C11.6664 10.1371 11.535 10.1642 11.4024 10.1642C11.2698 10.1642 11.1385 10.1371 11.016 10.0846C10.8935 10.032 10.7822 9.95497 10.6884 9.85785C10.5946 9.76074 10.5202 9.64544 10.4695 9.51856C10.4187 9.39167 10.3926 9.25568 10.3926 9.11833Z" fill="white"/>
</svg>
