<svg width="21" height="21" viewBox="0 0 21 21" fill="none" xmlns="http://www.w3.org/2000/svg">
<path d="M9.14884 3.64106C11.9701 3.64557 14.3294 5.78614 14.6073 8.59356C14.8854 11.401 12.9917 13.9629 10.2264 14.5205C7.46089 15.0784 4.7224 13.4509 3.89062 10.7551C3.05884 8.05928 4.40369 5.17178 7.00244 4.07405C7.6815 3.78681 8.41153 3.63954 9.14884 3.64106ZM9.14884 2.36833C5.40013 2.36833 2.36096 5.4075 2.36096 9.15621C2.36096 12.9049 5.40013 15.9441 9.14884 15.9441C12.8976 15.9441 15.9367 12.9049 15.9367 9.15621C15.9367 5.4075 12.8976 2.36833 9.14884 2.36833ZM17.9943 18.638C17.9107 18.6382 17.8279 18.6218 17.7506 18.5897C17.6734 18.5577 17.6033 18.5107 17.5443 18.4514L14.3201 15.2271C14.0791 14.9773 14.0825 14.5804 14.3278 14.3349C14.5733 14.0894 14.9702 14.0859 15.2198 14.3272L18.444 17.5514C18.5329 17.6404 18.5935 17.7538 18.618 17.8772C18.6426 18.0006 18.63 18.1285 18.5819 18.2448C18.5338 18.3611 18.4524 18.4606 18.3478 18.5306C18.2432 18.6006 18.1202 18.638 17.9943 18.638Z" fill="#8A8A8A"/>
</svg>
