<svg width="20" height="13" viewBox="0 0 20 13" fill="none" xmlns="http://www.w3.org/2000/svg">
<path fill-rule="evenodd" clip-rule="evenodd" d="M19.2 1.15709C19.2 0.518047 18.7224 0 18.1333 0H17.0667C16.4776 0 16 0.518047 16 1.15709V11.1852C16 11.8243 16.4776 12.3423 17.0667 12.3423H18.1333C18.7224 12.3423 19.2 11.8243 19.2 11.1852V1.15709ZM11.7659 2.46846H12.8326C13.4217 2.46846 13.8992 2.99894 13.8992 3.65332V11.1574C13.8992 11.8118 13.4217 12.3423 12.8326 12.3423H11.7659C11.1768 12.3423 10.6992 11.8118 10.6992 11.1574V3.65332C10.6992 2.99894 11.1768 2.46846 11.7659 2.46846ZM7.43412 5.14262H6.36745C5.77834 5.14262 5.30078 5.67985 5.30078 6.34256V11.1424C5.30078 11.8051 5.77834 12.3423 6.36745 12.3423H7.43412C8.02322 12.3423 8.50078 11.8051 8.50078 11.1424V6.34256C8.50078 5.67985 8.02322 5.14262 7.43412 5.14262ZM2.13333 7.61109H1.06667C0.477563 7.61109 0 8.14065 0 8.79389V11.1595C0 11.8127 0.477563 12.3423 1.06667 12.3423H2.13333C2.72244 12.3423 3.2 11.8127 3.2 11.1595V8.79389C3.2 8.14065 2.72244 7.61109 2.13333 7.61109Z" fill="black"/>
</svg>
