<svg width="37" height="37" viewBox="0 0 37 37" fill="none" xmlns="http://www.w3.org/2000/svg">
<path d="M23.125 7.06392V18.5C23.1245 19.4817 22.8117 20.4377 22.2317 21.2298C21.6518 22.0219 20.8349 22.6089 19.8992 22.9058C18.9636 23.2028 17.9577 23.1944 17.0271 22.8818C16.0966 22.5691 15.2896 21.9685 14.723 21.1668C14.1565 20.3651 13.8597 19.404 13.8757 18.4224C13.8916 17.4409 14.2194 16.4899 14.8117 15.707C15.404 14.9242 16.2301 14.3501 17.1703 14.0679C18.1105 13.7856 19.1162 13.8099 20.0417 14.1371V3.16042C27.8317 3.93279 33.9167 10.5065 33.9167 18.5C33.9167 27.0146 27.0147 33.9167 18.5 33.9167C9.98542 33.9167 3.08337 27.0146 3.08337 18.5C3.08337 10.5065 9.16833 3.93279 16.9584 3.16042V6.26225C13.8484 6.65797 11.0058 8.22304 9.00829 10.6394C7.0108 13.0557 6.00835 16.142 6.20466 19.2709C6.40098 22.3998 7.78134 25.3365 10.0652 27.4842C12.349 29.632 15.365 30.8294 18.5 30.8333C21.3634 30.8349 24.1382 29.8402 26.3483 28.0196C28.5585 26.1991 30.0663 23.6663 30.6132 20.8556C31.1601 18.0449 30.712 15.1315 29.3457 12.6151C27.9794 10.0987 25.7801 8.13609 23.125 7.06392Z" fill="#707070"/>
</svg>
