<svg width="19" height="21" viewBox="0 0 19 21" fill="none" xmlns="http://www.w3.org/2000/svg">
<g clip-path="url(#clip0_382_11048)">
<path d="M16.1282 11.2839C15.8112 11.2839 15.5531 11.0002 15.5531 10.6504V4.62748C15.5531 4.22694 15.2578 3.90129 14.8952 3.90129H8.48666C8.16902 3.90129 7.91163 3.61751 7.91163 3.2677C7.91163 2.91748 8.16902 2.63328 8.48666 2.63328H14.8952C15.8919 2.63328 16.7035 3.52774 16.7035 4.62748V10.6504C16.7035 11.0002 16.4454 11.2839 16.1282 11.2839ZM10.4352 17.3845H1.95101C0.95359 17.3845 0.142334 16.4901 0.142334 15.3907V4.6275C0.142334 3.52776 0.953946 2.6333 1.95103 2.6333H4.1931C4.5111 2.6333 4.76849 2.9175 4.76849 3.26772C4.76849 3.61753 4.5111 3.90131 4.1931 3.90131H1.95103C1.58777 3.90131 1.29239 4.22738 1.29239 4.6275V15.3907C1.29239 15.7905 1.58777 16.1165 1.95103 16.1165H10.4352C10.7525 16.1165 11.0102 16.4003 11.0102 16.7505C11.0102 17.1007 10.7524 17.3845 10.4352 17.3845ZM7.82253 1.83141H4.79259C4.47495 1.83141 4.21756 1.54722 4.21756 1.19699C4.21756 0.847186 4.47495 0.5634 4.79259 0.5634H7.82253C8.13944 0.5634 8.3972 0.847186 8.3972 1.19741C8.3972 1.54761 8.13944 1.83141 7.82253 1.83141Z" fill="black"/>
<path d="M7.90501 14.0816C5.90355 14.0816 4.27448 12.2859 4.27448 10.0787C4.27448 7.87196 5.90317 6.07622 7.90501 6.07622C9.90757 6.07622 11.5359 7.87194 11.5359 10.0787C11.5359 12.2859 9.90757 14.0816 7.90501 14.0816ZM7.90501 7.34382C6.537 7.34382 5.42491 8.57077 5.42491 10.0783C5.42491 11.5862 6.53735 12.8136 7.90501 12.8136C9.27266 12.8136 10.3855 11.5862 10.3855 10.0783C10.3858 8.57077 9.27266 7.34384 7.90503 7.34384L7.90501 7.34382ZM17.3019 14.7985H15.2095V12.492C15.2095 12.1413 14.9529 11.858 14.6345 11.858C14.3169 11.858 14.0595 12.1413 14.0595 12.492V14.7985H11.9678C11.6502 14.7985 11.3928 15.0819 11.3928 15.4325C11.3928 15.7828 11.6502 16.0661 11.9678 16.0661H14.0595V18.3735C14.0595 18.7233 14.3169 19.0071 14.6345 19.0071C14.9529 19.0071 15.2095 18.7233 15.2095 18.3735V16.0661H17.3019C17.6195 16.0661 17.8773 15.7828 17.8773 15.4325C17.8773 15.0819 17.6195 14.7985 17.3019 14.7985Z" fill="black"/>
</g>
<defs>
<clipPath id="clip0_382_11048">
<rect width="18.2549" height="20.1272" fill="white"/>
</clipPath>
</defs>
</svg>
