<svg width="27" height="29" viewBox="0 0 27 29" fill="none" xmlns="http://www.w3.org/2000/svg">
<path d="M20.0407 7.13876C20.0407 6.97791 20.1618 6.84677 20.3123 6.84677H21.1303C21.2808 6.84677 21.4035 6.97791 21.4035 7.13876V8.01299C21.4035 8.09043 21.3747 8.1647 21.3235 8.21945C21.2722 8.27421 21.2027 8.30498 21.1303 8.30498H20.3123C20.2401 8.30451 20.171 8.27355 20.1202 8.21884C20.0693 8.16413 20.0407 8.09012 20.0407 8.01299V7.13876ZM20.0407 10.0534C20.0407 9.89257 20.1618 9.76143 20.3123 9.76143H21.1303C21.2808 9.76143 21.4035 9.89257 21.4035 10.0534V10.9276C21.403 11.0048 21.3741 11.0786 21.3229 11.133C21.2717 11.1874 21.2024 11.2179 21.1303 11.2179H20.3123C20.2404 11.2174 20.1716 11.1867 20.1207 11.1324C20.0699 11.078 20.0411 11.0045 20.0407 10.9276V10.0534ZM20.0407 12.9663C20.0407 12.8055 20.1618 12.6761 20.3123 12.6761H21.1303C21.2808 12.6761 21.4035 12.8055 21.4035 12.9663V13.8406C21.4035 13.918 21.3747 13.9923 21.3235 14.047C21.2722 14.1018 21.2027 14.1326 21.1303 14.1326H20.3123C20.2401 14.1321 20.171 14.1011 20.1202 14.0464C20.0693 13.9917 20.0407 13.9177 20.0407 13.8406V12.9663ZM21.4035 15.881C21.4035 15.7201 21.5262 15.589 21.6767 15.589H22.4947C22.6452 15.589 22.7662 15.7201 22.7662 15.881V16.7552C22.7663 16.8324 22.7377 16.9064 22.6868 16.9611C22.6359 17.0158 22.5669 17.0468 22.4947 17.0472H21.6767C21.6042 17.0472 21.5347 17.0165 21.4835 16.9617C21.4323 16.9069 21.4035 16.8327 21.4035 16.7552V15.881ZM20.0407 18.7957C20.0407 18.6348 20.1618 18.5037 20.3123 18.5037H21.1303C21.2808 18.5037 21.4035 18.6348 21.4035 18.7957V19.6699C21.403 19.747 21.3741 19.8208 21.3229 19.8752C21.2717 19.9296 21.2024 19.9601 21.1303 19.9601H20.3123C20.2404 19.9597 20.1716 19.9289 20.1207 19.8746C20.0699 19.8203 20.0411 19.7467 20.0407 19.6699V18.7957ZM17.3135 10.0534C17.3135 9.89257 17.4362 9.76143 17.5867 9.76143H18.4047C18.5552 9.76143 18.6763 9.89257 18.6763 10.0534V10.9276C18.6759 11.0045 18.6471 11.078 18.5963 11.1324C18.5455 11.1867 18.4766 11.2174 18.4047 11.2179H17.5867C17.5146 11.2179 17.4453 11.1874 17.3941 11.133C17.3429 11.0786 17.314 11.0048 17.3135 10.9276V10.0534Z" fill="white"/>
<path d="M1.227 14.1326C1.227 12.9262 1.22373 11.9173 1.32516 11.1183C1.42823 10.2913 1.6589 9.53945 2.22495 8.93449C2.791 8.32952 3.49447 8.08299 4.26992 7.97284C5.01592 7.86444 5.95825 7.86793 7.08871 7.86793C8.21753 7.86793 9.16149 7.86444 9.90913 7.97284C10.683 8.08299 11.3848 8.32952 11.9525 8.93449C12.5185 9.53945 12.7492 10.2913 12.8523 11.12C12.9537 11.9173 12.9504 12.9244 12.9504 14.1326H11.0429C11.0429 12.8667 11.0412 12.0205 10.9611 11.3911C10.8858 10.7896 10.7566 10.5396 10.6028 10.377C10.4506 10.2126 10.2167 10.0745 9.65392 9.9923C9.06497 9.90837 8.27316 9.90487 7.08871 9.90487C5.90426 9.90487 5.11245 9.90837 4.5235 9.9923C3.96072 10.0745 3.72677 10.2126 3.57463 10.377C3.42085 10.5396 3.29161 10.7896 3.21471 11.3911C3.13619 12.0205 3.13292 12.8667 3.13292 14.1326V27.246H1.22864V14.1326H1.227Z" fill="white"/>
<path d="M18.4047 19.378C18.4047 18.1121 18.4031 17.2659 18.3229 16.6364C18.2477 16.035 18.1184 15.785 17.9647 15.6223C17.8125 15.458 17.5786 15.3199 17.0158 15.2377C16.4268 15.1538 15.635 15.152 14.4506 15.152H11.9966C10.8122 15.152 10.0203 15.1538 9.43139 15.2394C8.86862 15.3199 8.63467 15.458 8.48253 15.6223C8.32875 15.785 8.1995 16.035 8.12261 16.6364C8.04409 17.2659 8.04245 18.1121 8.04245 19.378V27.246H6.1349V19.378C6.1349 18.1716 6.13163 17.1627 6.23306 16.3637C6.33613 15.5367 6.5668 14.7866 7.13285 14.1799C7.69889 13.5749 8.40236 13.3284 9.17782 13.2182C9.92382 13.1098 10.8661 13.1133 11.9966 13.1133H14.4506C15.5794 13.1133 16.5234 13.1098 17.271 13.2182C18.0448 13.3284 18.7466 13.5749 19.3143 14.1799C19.8804 14.7866 20.1111 15.5367 20.2141 16.3654C20.3156 17.1627 20.3123 18.1698 20.3123 19.378V27.246H18.4047V19.378Z" fill="white"/>
<path d="M23.3126 8.5917C23.3126 7.69125 23.311 7.09677 23.2636 6.64218C23.2177 6.21381 23.1409 6.00749 23.046 5.86062C22.9494 5.712 22.7973 5.56339 22.4374 5.36756C22.0562 5.16124 21.5376 4.95143 20.7474 4.63496H20.7458C19.2096 4.01951 18.1609 3.60163 17.3593 3.41629C16.5806 3.2362 16.2599 3.33411 16.0505 3.48973C15.8395 3.64709 15.6432 3.93383 15.527 4.77309C15.4076 5.63857 15.4043 6.83975 15.4043 8.5917V14.136H13.4968V8.5917C13.4968 6.90619 13.4935 5.52667 13.6391 4.4776C13.7863 3.4058 14.1168 2.44066 14.961 1.81296H14.9626C15.81 1.18352 16.772 1.19401 17.7618 1.42131C18.7319 1.64511 19.9392 2.13293 21.4165 2.72565L22.4537 3.14878C22.7679 3.28341 23.0525 3.41454 23.3012 3.55092C23.8214 3.83067 24.273 4.17337 24.6149 4.6979C24.9552 5.22419 25.0942 5.79943 25.1597 6.41663C25.2218 7.0111 25.2202 7.73671 25.2202 8.5917V27.2494H23.3126V8.59344V8.5917Z" fill="white"/>
<path d="M25.4934 26.2267L25.6848 26.2477C25.8999 26.2951 26.093 26.4202 26.2317 26.6021C26.3704 26.784 26.4461 27.0114 26.4461 27.2461C26.4461 27.4807 26.3704 27.7081 26.2317 27.89C26.093 28.0719 25.8999 28.1971 25.6848 28.2444L25.4934 28.2654H0.953775C0.700818 28.2654 0.458222 28.158 0.279354 27.9668C0.100487 27.7757 0 27.5164 0 27.2461C0 26.9757 0.100487 26.7164 0.279354 26.5253C0.458222 26.3341 0.700818 26.2267 0.953775 26.2267H25.4934ZM15.6776 20.9814L15.869 21.0024C16.084 21.0497 16.2771 21.1749 16.4158 21.3568C16.5545 21.5387 16.6302 21.7661 16.6302 22.0007C16.6302 22.2353 16.5545 22.4628 16.4158 22.6447C16.2771 22.8265 16.084 22.9517 15.869 22.9991L15.6776 23.0201H10.7696C10.5167 23.0201 10.2741 22.9127 10.0952 22.7215C9.91635 22.5303 9.81586 22.2711 9.81586 22.0007C9.81586 21.7304 9.91635 21.4711 10.0952 21.2799C10.2741 21.0888 10.5167 20.9814 10.7696 20.9814H15.6776ZM15.6776 17.0474L15.869 17.0683C16.084 17.1157 16.2771 17.2409 16.4158 17.4228C16.5545 17.6046 16.6302 17.8321 16.6302 18.0667C16.6302 18.3013 16.5545 18.5288 16.4158 18.7107C16.2771 18.8925 16.084 19.0177 15.869 19.0651L15.6776 19.0861H10.7696C10.5167 19.0861 10.2741 18.9787 10.0952 18.7875C9.91635 18.5963 9.81586 18.3371 9.81586 18.0667C9.81586 17.7964 9.91635 17.5371 10.0952 17.3459C10.2741 17.1548 10.5167 17.0474 10.7696 17.0474H15.6776ZM9.81586 8.88736V6.92036C9.81586 6.27343 9.81423 5.89052 9.77987 5.61776C9.77306 5.54619 9.75823 5.47574 9.7357 5.40795L9.73079 5.4027C9.66736 5.37863 9.60145 5.36278 9.53448 5.35549C9.2809 5.32053 8.92098 5.31703 8.31567 5.31703H5.86171C5.2564 5.31703 4.89812 5.31878 4.6429 5.35549C4.57469 5.36263 4.50761 5.37908 4.44331 5.40445C4.41958 5.47317 4.40418 5.54486 4.39751 5.61776C4.36479 5.89052 4.36152 6.27343 4.36152 6.92036V8.88736C4.36152 9.15771 4.26103 9.41698 4.08216 9.60815C3.90329 9.79931 3.6607 9.9067 3.40774 9.9067C3.15478 9.9067 2.91219 9.79931 2.73332 9.60815C2.55445 9.41698 2.45397 9.15771 2.45397 8.88736V6.92036C2.45397 6.33113 2.45069 5.78736 2.50632 5.34675C2.56521 4.87467 2.70591 4.37462 3.09363 3.96198L3.24087 3.81861C3.59588 3.51263 4.00324 3.39024 4.38933 3.33429C4.80159 3.27484 5.31038 3.27834 5.86171 3.27834H6.13492V1.01935C6.13492 0.748998 6.2354 0.489723 6.41427 0.298559C6.59314 0.107395 6.83573 0 7.08869 0C7.34165 0 7.58424 0.107395 7.76311 0.298559C7.94198 0.489723 8.04247 0.748998 8.04247 1.01935V3.27834H8.31567C8.867 3.27834 9.37579 3.27484 9.78805 3.33429C10.1741 3.39024 10.5815 3.51263 10.9365 3.81861L11.0837 3.96198L11.2179 4.11934C11.5042 4.49876 11.6187 4.93412 11.6711 5.34675C11.7267 5.78736 11.7234 6.33113 11.7234 6.92036V8.88736C11.7234 9.02122 11.6987 9.15377 11.6508 9.27745C11.6029 9.40112 11.5326 9.51349 11.4441 9.60815C11.3555 9.7028 11.2504 9.77789 11.1346 9.82911C11.0189 9.88034 10.8949 9.9067 10.7696 9.9067C10.6444 9.9067 10.5204 9.88034 10.4046 9.82911C10.2889 9.77789 10.1838 9.7028 10.0952 9.60815C10.0067 9.51349 9.9364 9.40112 9.88847 9.27745C9.84053 9.15377 9.81586 9.02122 9.81586 8.88736Z" fill="white"/>
</svg>
