<svg width="23" height="23" viewBox="0 0 23 23" fill="none" xmlns="http://www.w3.org/2000/svg">
<g clip-path="url(#clip0_462_60)">
<path d="M22.2969 11.0755L12.45 1.23085C12.1895 0.970302 11.8436 0.851259 11.5 0.864735C11.1563 0.851259 10.8104 0.970302 10.5499 1.23085L0.702979 11.0755C0.206592 11.5696 0.206592 12.3805 0.702979 12.8768C1.19712 13.3732 2.00796 13.3732 2.50435 12.8768L11.5 3.88124L20.4956 12.8768C20.9919 13.3732 21.8005 13.3732 22.2969 12.8768C22.7911 12.3805 22.7911 11.5719 22.2969 11.0755Z" fill="#8A8A8A"/>
<path d="M3.24341 13.5686V21.1357C3.24341 21.7557 3.65669 22.1352 4.27661 22.1352H8.61157V16.2864C8.61157 15.5834 9.13042 15.0825 9.83569 15.0825H13.1172C13.8203 15.0825 14.4514 15.5834 14.4514 16.2864V22.1352H18.6763C19.2962 22.1352 19.7297 21.7557 19.7297 21.1357V13.3732L11.5854 5.24237L3.24341 13.5686Z" fill="#8A8A8A"/>
</g>
<defs>
<clipPath id="clip0_462_60">
<rect width="23" height="23" fill="white"/>
</clipPath>
</defs>
</svg>
