<svg width="49" height="49" viewBox="0 0 49 49" fill="none" xmlns="http://www.w3.org/2000/svg">
<rect width="48.3802" height="48.3802" rx="24.1901" fill="#F79EFA"/>
<path d="M39.2027 16.5676L31.8516 10.789V14.9588H25.6313C24.7941 14.9604 23.9916 15.2944 23.3997 15.8876C22.8077 16.4808 22.4746 17.2848 22.4733 18.1236L22.466 29.7866C22.5249 31.0695 22.186 31.8666 21.4137 31.8641H18.2336C18.0176 30.8214 17.4232 29.896 16.5655 29.2669C15.7077 28.6378 14.6476 28.3497 13.5901 28.4584C12.5326 28.567 11.5529 29.0647 10.8405 29.8551C10.128 30.6455 9.73355 31.6725 9.73328 32.7374C9.7336 33.3023 9.84509 33.8616 10.0614 34.3833C10.2776 34.905 10.5945 35.3789 10.9937 35.7778C11.393 36.1767 11.8668 36.4929 12.3881 36.7082C12.9095 36.9235 13.468 37.0338 14.0319 37.0326C14.9549 37.0319 15.8531 36.7338 16.5938 36.1822C17.3346 35.6307 17.8785 34.855 18.1452 33.9699H21.4162C23.463 34.0092 24.6699 32.9182 24.5754 29.7841L24.5815 18.1199C24.5825 17.8404 24.6939 17.5727 24.8912 17.3752C25.0886 17.1777 25.356 17.0664 25.635 17.0658H31.854V22.3462L39.2027 16.5676ZM11.9557 32.7337C11.9556 32.4606 12.0093 32.1901 12.1136 31.9377C12.218 31.6853 12.3709 31.456 12.5637 31.2628C12.7565 31.0697 12.9854 30.9164 13.2373 30.8119C13.4893 30.7073 13.7593 30.6535 14.0319 30.6535C14.3046 30.6535 14.5746 30.7073 14.8266 30.8119C15.0785 30.9164 15.3074 31.0697 15.5002 31.2628C15.693 31.456 15.8459 31.6853 15.9502 31.9377C16.0546 32.1901 16.1083 32.4606 16.1082 32.7337C16.1082 33.2853 15.8894 33.8143 15.5 34.2043C15.1106 34.5943 14.5826 34.8134 14.0319 34.8134C13.4813 34.8134 12.9532 34.5943 12.5639 34.2043C12.1745 33.8143 11.9557 33.2853 11.9557 32.7337Z" fill="black"/>
</svg>
