<svg width="143" height="54" viewBox="0 0 143 54" fill="none" xmlns="http://www.w3.org/2000/svg">
<rect opacity="0.35" x="83.4927" y="23.5" width="24" height="12" rx="3.8" stroke="black"/>
<path opacity="0.4" d="M108.994 27.7824V31.8579C109.799 31.5127 110.322 30.7097 110.322 29.8201C110.322 28.9305 109.799 28.1276 108.994 27.7824Z" fill="black"/>
<rect x="84.9944" y="25.0002" width="21" height="9" rx="2.5" fill="black"/>
<path fill-rule="evenodd" clip-rule="evenodd" d="M67.2699 26.1052C69.757 26.1053 72.149 27.0274 73.9515 28.6809C74.0873 28.8086 74.3042 28.8069 74.4379 28.6773L75.7354 27.4138C75.8031 27.3481 75.8408 27.259 75.8403 27.1663C75.8397 27.0736 75.8009 26.985 75.7324 26.92C71.0014 22.5453 63.5377 22.5453 58.8067 26.92C58.7381 26.9849 58.6992 27.0735 58.6986 27.1662C58.698 27.2589 58.7357 27.348 58.8033 27.4138L60.1012 28.6773C60.2348 28.8071 60.4519 28.8087 60.5875 28.6809C62.3903 27.0273 64.7826 26.1052 67.2699 26.1052ZM67.2666 30.3255C68.6239 30.3254 69.9328 30.8372 70.9389 31.7613C71.075 31.8924 71.2893 31.8896 71.422 31.7549L72.7093 30.4356C72.7771 30.3664 72.8147 30.2725 72.8137 30.1749C72.8127 30.0774 72.7732 29.9843 72.7041 29.9165C69.6402 27.0257 64.8955 27.0257 61.8317 29.9165C61.7624 29.9843 61.723 30.0774 61.7221 30.175C61.7211 30.2726 61.7589 30.3665 61.8268 30.4356L63.1137 31.7549C63.2464 31.8896 63.4608 31.8924 63.5968 31.7613C64.6023 30.8378 65.9101 30.3261 67.2666 30.3255ZM69.791 33.1191C69.7929 33.2244 69.7558 33.326 69.6885 33.3998L67.5119 35.8545C67.4481 35.9267 67.3611 35.9673 67.2703 35.9673C67.1795 35.9673 67.0925 35.9267 67.0287 35.8545L64.8517 33.3998C64.7845 33.3259 64.7475 33.2243 64.7495 33.119C64.7515 33.0136 64.7923 32.9139 64.8622 32.8432C66.2523 31.5293 68.2883 31.5293 69.6784 32.8432C69.7483 32.9139 69.7891 33.0137 69.791 33.1191Z" fill="black"/>
<path fill-rule="evenodd" clip-rule="evenodd" d="M51.2001 24.6854C51.2001 24.0523 50.7226 23.5392 50.1335 23.5392H49.0668C48.4777 23.5392 48.0001 24.0523 48.0001 24.6854V34.6193C48.0001 35.2524 48.4777 35.7656 49.0668 35.7656H50.1335C50.7226 35.7656 51.2001 35.2524 51.2001 34.6193V24.6854ZM43.766 25.9844H44.8327C45.4218 25.9844 45.8993 26.5099 45.8993 27.1582V34.5918C45.8993 35.2401 45.4218 35.7656 44.8327 35.7656H43.766C43.1769 35.7656 42.6993 35.2401 42.6993 34.5918V27.1582C42.6993 26.5099 43.1769 25.9844 43.766 25.9844ZM39.4342 28.6335H38.3676C37.7785 28.6335 37.3009 29.1657 37.3009 29.8222V34.5769C37.3009 35.2334 37.7785 35.7656 38.3676 35.7656H39.4342C40.0233 35.7656 40.5009 35.2334 40.5009 34.5769V29.8222C40.5009 29.1657 40.0233 28.6335 39.4342 28.6335ZM34.1335 31.0788H33.0668C32.4777 31.0788 32.0001 31.6034 32.0001 32.2505V34.5939C32.0001 35.241 32.4777 35.7656 33.0668 35.7656H34.1335C34.7226 35.7656 35.2001 35.241 35.2001 34.5939V32.2505C35.2001 31.6034 34.7226 31.0788 34.1335 31.0788Z" fill="black"/>
</svg>
