<svg width="20" height="20" viewBox="0 0 20 20" fill="none" xmlns="http://www.w3.org/2000/svg">
<g clip-path="url(#clip0_499_11)">
<path d="M18.7514 7.03657C18.7527 7.63177 18.6361 8.22132 18.4081 8.77112C18.1801 9.32093 17.8454 9.82008 17.4233 10.2397L10.4467 17.3194C10.3886 17.3784 10.3193 17.4253 10.2428 17.4573C10.1664 17.4894 10.0843 17.5058 10.0014 17.5058C9.91853 17.5058 9.83648 17.4894 9.76003 17.4573C9.68358 17.4253 9.61426 17.3784 9.5561 17.3194L2.57954 10.2397C1.72898 9.39018 1.25073 8.23757 1.25 7.03543C1.24927 5.83329 1.72611 4.6801 2.57563 3.82954C3.42516 2.97898 4.57777 2.50073 5.7799 2.5C6.98204 2.49927 8.13523 2.97611 8.98579 3.82563L10.0014 4.77485L11.0241 3.82251C11.6588 3.19094 12.4664 2.76158 13.345 2.58863C14.2235 2.41568 15.1336 2.5069 15.9603 2.85077C16.7871 3.19464 17.4934 3.77575 17.9902 4.52073C18.4869 5.26571 18.7518 6.14116 18.7514 7.03657Z" fill="black"/>
</g>
<defs>
<clipPath id="clip0_499_11">
<rect width="20" height="20" fill="white"/>
</clipPath>
</defs>
</svg>
