<svg width="76" height="76" viewBox="0 0 76 76" fill="none" xmlns="http://www.w3.org/2000/svg">
<g clip-path="url(#clip0_365_9832)">
<path d="M38 7.125C31.8935 7.125 25.9241 8.93579 20.8468 12.3284C15.7694 15.721 11.8121 20.543 9.47523 26.1846C7.13838 31.8263 6.52695 38.0342 7.71827 44.0234C8.90959 50.0126 11.8501 55.514 16.1681 59.8319C20.486 64.1499 25.9874 67.0904 31.9766 68.2817C37.9658 69.4731 44.1737 68.8616 49.8154 66.5248C55.457 64.1879 60.279 60.2306 63.6716 55.1532C67.0642 50.0759 68.875 44.1065 68.875 38C68.8664 29.8141 65.6107 21.9659 59.8224 16.1776C54.0341 10.3893 46.1859 7.13364 38 7.125ZM50.0383 39.9534L34.6008 50.6409C34.2444 50.8874 33.8274 51.0316 33.3949 51.058C32.9624 51.0845 32.5309 50.9921 32.1472 50.7909C31.7634 50.5897 31.442 50.2873 31.2178 49.9166C30.9936 49.5458 30.875 49.1208 30.875 48.6875V27.3125C30.875 26.8792 30.9936 26.4542 31.2178 26.0834C31.442 25.7126 31.7634 25.4103 32.1472 25.2091C32.5309 25.0079 32.9624 24.9155 33.3949 24.9419C33.8274 24.9684 34.2444 25.1126 34.6008 25.3591L50.0383 36.0466C50.3543 36.2651 50.6125 36.5569 50.7909 36.8972C50.9693 37.2374 51.0625 37.6158 51.0625 38C51.0625 38.3842 50.9693 38.7626 50.7909 39.1028C50.6125 39.4431 50.3543 39.7349 50.0383 39.9534Z" fill="black"/>
</g>
<defs>
<clipPath id="clip0_365_9832">
<rect width="76" height="76" fill="white"/>
</clipPath>
</defs>
</svg>
