<svg width="22" height="20" viewBox="0 0 22 20" fill="none" xmlns="http://www.w3.org/2000/svg">
<path d="M17.6317 12.0077C20.5826 6.89663 22.058 4.34111 21.115 2.36615C21.0217 2.17065 20.9132 1.98275 20.7905 1.80416C19.5517 -4.23126e-06 16.6008 -4.11505e-06 10.6991 -3.64422e-06C4.79739 -5.06361e-06 1.84654 -4.9474e-06 0.607683 1.80416C0.485052 1.98275 0.376566 2.17065 0.283218 2.36615C-0.659807 4.34111 0.815624 6.89663 3.76648 12.0077C6.71734 17.1187 8.19277 19.6742 10.3746 19.845C10.5906 19.8619 10.8076 19.8619 11.0236 19.845C13.2055 19.6742 14.6809 17.1187 17.6317 12.0077Z" fill="white"/>
</svg>
