<svg width="20" height="20" viewBox="0 0 20 20" fill="none" xmlns="http://www.w3.org/2000/svg">
<g clip-path="url(#clip0_499_22)">
<path d="M18.5672 9.19219L12.3172 15.4422C12.2298 15.5297 12.1184 15.5893 11.9971 15.6135C11.8758 15.6376 11.75 15.6252 11.6358 15.5779C11.5215 15.5305 11.4239 15.4504 11.3552 15.3475C11.2865 15.2446 11.2499 15.1237 11.25 15V11.893C6.78908 12.1461 3.73048 15.0391 2.87189 15.9555C2.73707 16.0995 2.56027 16.1972 2.36666 16.2349C2.17304 16.2726 1.97247 16.2483 1.7935 16.1653C1.61452 16.0824 1.46625 15.9452 1.3698 15.7731C1.27334 15.6011 1.23361 15.403 1.25626 15.207C1.54611 12.6867 2.92658 10.2625 5.14376 8.38125C6.98517 6.81875 9.22345 5.82735 11.25 5.65391V2.5C11.2499 2.37632 11.2865 2.25539 11.3552 2.15252C11.4239 2.04964 11.5215 1.96946 11.6358 1.92211C11.75 1.87477 11.8758 1.86239 11.9971 1.88655C12.1184 1.9107 12.2298 1.97031 12.3172 2.05782L18.5672 8.30782C18.6253 8.36586 18.6714 8.43479 18.7029 8.51067C18.7343 8.58654 18.7505 8.66787 18.7505 8.75C18.7505 8.83214 18.7343 8.91347 18.7029 8.98934C18.6714 9.06521 18.6253 9.13415 18.5672 9.19219Z" fill="black"/>
</g>
<defs>
<clipPath id="clip0_499_22">
<rect width="20" height="20" fill="white"/>
</clipPath>
</defs>
</svg>
