<svg width="390" height="54" viewBox="0 0 390 54" fill="none" xmlns="http://www.w3.org/2000/svg">
<path d="M56.7914 36.5792C56.0094 36.5792 55.3294 36.4376 54.7514 36.1542C54.1847 35.8709 53.7144 35.5366 53.3404 35.1512L54.6664 33.6382C54.8931 33.8989 55.1877 34.1142 55.5504 34.2842C55.9131 34.4542 56.2814 34.5392 56.6554 34.5392C57.0181 34.5392 57.3637 34.4599 57.6924 34.3012C58.0211 34.1312 58.3044 33.8649 58.5424 33.5022C58.7917 33.1282 58.9844 32.6352 59.1204 32.0232C59.2677 31.4112 59.3414 30.6576 59.3414 29.7622C59.3414 28.6856 59.2394 27.8299 59.0354 27.1952C58.8427 26.5606 58.5821 26.1072 58.2534 25.8352C57.9247 25.5519 57.5507 25.4102 57.1314 25.4102C56.8254 25.4102 56.5421 25.4952 56.2814 25.6652C56.0207 25.8352 55.8111 26.0902 55.6524 26.4302C55.5051 26.7702 55.4314 27.2009 55.4314 27.7222C55.4314 28.2096 55.5051 28.6176 55.6524 28.9462C55.7997 29.2636 56.0037 29.5016 56.2644 29.6602C56.5364 29.8189 56.8537 29.8982 57.2164 29.8982C57.5677 29.8982 57.9304 29.7906 58.3044 29.5752C58.6784 29.3599 59.0184 28.9972 59.3244 28.4872L59.4434 30.1702C59.2281 30.4762 58.9617 30.7426 58.6444 30.9692C58.3384 31.1959 58.0211 31.3716 57.6924 31.4962C57.3637 31.6209 57.0464 31.6832 56.7404 31.6832C56.0491 31.6832 55.4314 31.5416 54.8874 31.2582C54.3434 30.9636 53.9127 30.5272 53.5954 29.9492C53.2894 29.3599 53.1364 28.6176 53.1364 27.7222C53.1364 26.8609 53.3177 26.1186 53.6804 25.4952C54.0431 24.8606 54.5247 24.3732 55.1254 24.0332C55.7261 23.6932 56.3834 23.5232 57.0974 23.5232C57.6981 23.5232 58.2647 23.6479 58.7974 23.8972C59.3414 24.1352 59.8231 24.5092 60.2424 25.0192C60.6731 25.5179 61.0074 26.1639 61.2454 26.9572C61.4947 27.7392 61.6194 28.6742 61.6194 29.7622C61.6194 30.9522 61.4891 31.9779 61.2284 32.8392C60.9677 33.6892 60.6051 34.3919 60.1404 34.9472C59.6871 35.5026 59.1714 35.9162 58.5934 36.1882C58.0154 36.4489 57.4147 36.5792 56.7914 36.5792ZM64.7448 30.1192C64.2914 30.1192 63.9174 29.9662 63.6228 29.6602C63.3281 29.3429 63.1808 28.9576 63.1808 28.5042C63.1808 28.0282 63.3281 27.6372 63.6228 27.3312C63.9174 27.0252 64.2914 26.8722 64.7448 26.8722C65.1868 26.8722 65.5551 27.0252 65.8498 27.3312C66.1444 27.6372 66.2918 28.0282 66.2918 28.5042C66.2918 28.9576 66.1444 29.3429 65.8498 29.6602C65.5551 29.9662 65.1868 30.1192 64.7448 30.1192ZM64.7448 36.5792C64.2914 36.5792 63.9174 36.4206 63.6228 36.1032C63.3281 35.7859 63.1808 35.4006 63.1808 34.9472C63.1808 34.4712 63.3281 34.0802 63.6228 33.7742C63.9174 33.4682 64.2914 33.3152 64.7448 33.3152C65.1868 33.3152 65.5551 33.4682 65.8498 33.7742C66.1444 34.0802 66.2918 34.4712 66.2918 34.9472C66.2918 35.4006 66.1444 35.7859 65.8498 36.1032C65.5551 36.4206 65.1868 36.5792 64.7448 36.5792ZM72.7211 36.3412V28.6062C72.7211 28.2436 72.7324 27.8129 72.7551 27.3142C72.7777 26.8042 72.8004 26.3622 72.8231 25.9882H72.7381C72.5907 26.3282 72.4321 26.6682 72.2621 27.0082C72.0921 27.3482 71.9164 27.6939 71.7351 28.0452L69.7801 31.1732H76.5461V33.0772H67.3491V31.3772L72.0411 23.7442H75.0501V36.3412H72.7211ZM77.9034 36.3412V34.3012H80.6234V26.3622H78.3284V24.7982C78.9631 24.6849 79.5071 24.5489 79.9604 24.3902C80.4251 24.2202 80.8557 24.0049 81.2524 23.7442H83.1054V34.3012H85.4684V36.3412H77.9034Z" fill="black"/>
<rect x="140.5" y="13" width="104" height="28" rx="14" fill="#2A2A2A"/>
<rect opacity="0.35" x="330.493" y="23.5" width="24" height="12" rx="3.8" stroke="black"/>
<path opacity="0.4" d="M355.994 27.7824V31.8579C356.799 31.5127 357.322 30.7097 357.322 29.8201C357.322 28.9305 356.799 28.1276 355.994 27.7824Z" fill="black"/>
<rect x="331.994" y="25.0002" width="21" height="9" rx="2.5" fill="black"/>
<path fill-rule="evenodd" clip-rule="evenodd" d="M314.27 26.1052C316.757 26.1053 319.149 27.0274 320.952 28.6809C321.087 28.8086 321.304 28.8069 321.438 28.6773L322.735 27.4138C322.803 27.3481 322.841 27.259 322.84 27.1663C322.84 27.0736 322.801 26.985 322.732 26.92C318.001 22.5453 310.538 22.5453 305.807 26.92C305.738 26.9849 305.699 27.0735 305.699 27.1662C305.698 27.2589 305.736 27.348 305.803 27.4138L307.101 28.6773C307.235 28.8071 307.452 28.8087 307.588 28.6809C309.39 27.0273 311.783 26.1052 314.27 26.1052ZM314.267 30.3255C315.624 30.3254 316.933 30.8372 317.939 31.7613C318.075 31.8924 318.289 31.8896 318.422 31.7549L319.709 30.4356C319.777 30.3664 319.815 30.2725 319.814 30.1749C319.813 30.0774 319.773 29.9843 319.704 29.9165C316.64 27.0257 311.895 27.0257 308.832 29.9165C308.762 29.9843 308.723 30.0774 308.722 30.175C308.721 30.2726 308.759 30.3665 308.827 30.4356L310.114 31.7549C310.246 31.8896 310.461 31.8924 310.597 31.7613C311.602 30.8378 312.91 30.3261 314.267 30.3255ZM316.791 33.1191C316.793 33.2244 316.756 33.326 316.689 33.3998L314.512 35.8545C314.448 35.9267 314.361 35.9673 314.27 35.9673C314.18 35.9673 314.093 35.9267 314.029 35.8545L311.852 33.3998C311.784 33.3259 311.747 33.2243 311.749 33.119C311.751 33.0136 311.792 32.9139 311.862 32.8432C313.252 31.5293 315.288 31.5293 316.678 32.8432C316.748 32.9139 316.789 33.0137 316.791 33.1191Z" fill="black"/>
<path fill-rule="evenodd" clip-rule="evenodd" d="M298.2 24.6854C298.2 24.0523 297.723 23.5392 297.133 23.5392H296.067C295.478 23.5392 295 24.0523 295 24.6854V34.6193C295 35.2524 295.478 35.7656 296.067 35.7656H297.133C297.723 35.7656 298.2 35.2524 298.2 34.6193V24.6854ZM290.766 25.9844H291.833C292.422 25.9844 292.899 26.5099 292.899 27.1582V34.5918C292.899 35.2401 292.422 35.7656 291.833 35.7656H290.766C290.177 35.7656 289.699 35.2401 289.699 34.5918V27.1582C289.699 26.5099 290.177 25.9844 290.766 25.9844ZM286.434 28.6335H285.368C284.778 28.6335 284.301 29.1657 284.301 29.8222V34.5769C284.301 35.2334 284.778 35.7656 285.368 35.7656H286.434C287.023 35.7656 287.501 35.2334 287.501 34.5769V29.8222C287.501 29.1657 287.023 28.6335 286.434 28.6335ZM281.133 31.0788H280.067C279.478 31.0788 279 31.6034 279 32.2505V34.5939C279 35.241 279.478 35.7656 280.067 35.7656H281.133C281.723 35.7656 282.2 35.241 282.2 34.5939V32.2505C282.2 31.6034 281.723 31.0788 281.133 31.0788Z" fill="black"/>
</svg>
