<svg width="24" height="24" viewBox="0 0 24 24" fill="none" xmlns="http://www.w3.org/2000/svg">
<path d="M4.79998 5.54999C4.68063 5.54999 4.56617 5.5974 4.48178 5.68179C4.39739 5.76618 4.34998 5.88064 4.34998 5.99999V18C4.34998 18.2484 4.55158 18.45 4.79998 18.45H19.2C19.3193 18.45 19.4338 18.4026 19.5182 18.3182C19.6026 18.2338 19.65 18.1193 19.65 18V5.99999C19.65 5.88064 19.6026 5.76618 19.5182 5.68179C19.4338 5.5974 19.3193 5.54999 19.2 5.54999H4.79998ZM4.79998 4.04999H19.2C20.2764 4.04999 21.15 4.92359 21.15 5.99999V18C21.15 19.0764 20.2764 19.95 19.2 19.95H4.79998C4.5439 19.95 4.29033 19.8995 4.05374 19.8016C3.81716 19.7036 3.60219 19.5599 3.42112 19.3788C3.05542 19.0131 2.84998 18.5172 2.84998 18V5.99999C2.84998 4.92359 3.72358 4.04999 4.79998 4.04999Z" fill="#8A8A8A"/>
<path d="M15.7212 11.3676C15.889 11.6472 15.9388 11.982 15.8599 12.2984C15.7809 12.6148 15.5795 12.8868 15.3 13.0548L10.7124 15.8064C10.5258 15.9182 10.3129 15.9786 10.0955 15.9813C9.87797 15.984 9.66365 15.9291 9.47434 15.822C9.28502 15.7149 9.1275 15.5595 9.01782 15.3717C8.90813 15.1838 8.85022 14.9703 8.84998 14.7528V9.24718C8.85022 9.02968 8.90813 8.81612 9.01782 8.6283C9.1275 8.44047 9.28502 8.28509 9.47434 8.17799C9.66365 8.0709 9.87797 8.01591 10.0955 8.01865C10.3129 8.02139 10.5258 8.08175 10.7124 8.19358L15.3 10.944C15.4728 11.0484 15.618 11.1924 15.7212 11.3664V11.3676ZM10.35 9.72358V14.2752L14.142 12L10.35 9.72478V9.72358Z" fill="#8A8A8A"/>
</svg>
