<svg width="18" height="13" viewBox="0 0 18 13" fill="none" xmlns="http://www.w3.org/2000/svg">
<path fill-rule="evenodd" clip-rule="evenodd" d="M8.5713 2.48966C11.0584 2.48976 13.4504 3.42059 15.2529 5.08974C15.3887 5.21861 15.6056 5.21698 15.7393 5.0861L17.0368 3.81065C17.1045 3.74427 17.1422 3.65435 17.1417 3.56079C17.1411 3.46723 17.1023 3.37775 17.0338 3.31214C12.3028 -1.10405 4.83907 -1.10405 0.108056 3.31214C0.039524 3.3777 0.000639766 3.46715 7.82398e-06 3.56071C-0.000624118 3.65427 0.0370483 3.74422 0.104689 3.81065L1.40255 5.0861C1.53615 5.21718 1.75327 5.2188 1.88893 5.08974C3.69167 3.42048 6.08395 2.48965 8.5713 2.48966ZM8.56795 6.74994C9.92527 6.74985 11.2341 7.26644 12.2403 8.19933C12.3764 8.33173 12.5907 8.32886 12.7234 8.19286L14.0107 6.86105C14.0784 6.79119 14.1161 6.69642 14.1151 6.59795C14.1141 6.49947 14.0746 6.40551 14.0054 6.33708C10.9416 3.41883 6.19688 3.41883 3.13305 6.33708C3.06384 6.40551 3.02435 6.49952 3.02345 6.59803C3.02254 6.69653 3.06028 6.79129 3.12822 6.86105L4.41513 8.19286C4.54778 8.32886 4.76215 8.33173 4.89823 8.19933C5.90368 7.26706 7.21153 6.75051 8.56795 6.74994ZM11.0924 9.56997C11.0943 9.67632 11.0572 9.77885 10.9899 9.85336L8.81327 12.3314C8.74946 12.4042 8.66247 12.4452 8.5717 12.4452C8.48093 12.4452 8.39394 12.4042 8.33013 12.3314L6.15311 9.85336C6.08585 9.77879 6.04886 9.67623 6.05085 9.56988C6.05285 9.46353 6.09365 9.36282 6.16364 9.29154C7.55374 7.96519 9.58967 7.96519 10.9798 9.29154C11.0497 9.36288 11.0904 9.46362 11.0924 9.56997Z" fill="black"/>
</svg>
