<svg width="22" height="22" viewBox="0 0 22 22" fill="none" xmlns="http://www.w3.org/2000/svg">
<path d="M6.02401 18.8727C5.88014 18.8728 5.73886 18.8344 5.61488 18.7614C5.36468 18.6143 5.21362 18.3436 5.21835 18.0533L5.2451 16.4624C2.96305 15.1316 1.56592 12.8421 1.56592 10.3782C1.56592 6.38021 5.18021 3.12726 9.62275 3.12726C14.0649 3.12726 17.6794 6.38021 17.6794 10.3782C17.6794 14.3763 14.0649 17.6292 9.62275 17.6292C9.26478 17.6292 8.90208 17.6052 8.52047 17.556L6.42684 18.765C6.30433 18.8356 6.16541 18.8727 6.02401 18.8727ZM9.62275 4.73859C6.06887 4.73859 3.17725 7.26848 3.17725 10.3782C3.17725 12.3877 4.42018 14.2614 6.42134 15.2677C6.55674 15.3359 6.67013 15.441 6.74849 15.5707C6.82685 15.7005 6.867 15.8498 6.86431 16.0014L6.85329 16.6579L7.95556 16.0214C8.11528 15.9298 8.30254 15.8948 8.4835 15.9235C8.8887 15.9868 9.26123 16.0179 9.62275 16.0179C13.1767 16.0179 16.0681 13.488 16.0681 10.3783C16.0681 7.26852 13.1767 4.73859 9.62275 4.73859ZM17.5201 18.8727C17.344 18.8728 17.1728 18.8152 17.0326 18.7087L15.3576 17.4364C15.0031 17.1674 14.9343 16.6619 15.2034 16.3074C15.4725 15.9538 15.9776 15.8841 16.332 16.1532L16.7514 16.4718L16.7561 16.2704C16.7596 16.1213 16.8044 15.976 16.8856 15.8508C16.9668 15.7257 17.0812 15.6255 17.216 15.5615C18.8824 14.7696 19.2317 13.2012 19.2317 12.0245C19.2317 11.2268 18.963 10.4545 18.4544 9.79206C18.1837 9.43918 18.2498 8.93328 18.603 8.66262C18.9555 8.39119 19.4614 8.45846 19.7325 8.81093C20.4591 9.75744 20.843 10.8688 20.843 12.0245C20.843 14.154 19.9646 15.8227 18.356 16.7783L18.3253 18.0859C18.3218 18.2343 18.2774 18.3787 18.197 18.5035C18.1166 18.6282 18.0034 18.7283 17.8697 18.7928C17.7607 18.8454 17.6412 18.8727 17.5201 18.8727Z" fill="#8A8A8A"/>
<path d="M6.02399 9.57257C6.46852 9.57257 6.82965 9.93331 6.82965 10.3782C6.82965 10.8232 6.46852 11.1839 6.02399 11.1839C5.57866 11.1839 5.21832 10.8232 5.21832 10.3782C5.21832 9.93331 5.57868 9.57257 6.02399 9.57257ZM9.52321 9.57257C9.96813 9.57257 10.3289 9.93331 10.3289 10.3782C10.3289 10.8232 9.96813 11.1839 9.52321 11.1839C9.07829 11.1839 8.71755 10.8232 8.71755 10.3782C8.71755 9.93331 9.07827 9.57257 9.52321 9.57257ZM13.0224 9.57257C13.4673 9.57257 13.8281 9.93331 13.8281 10.3782C13.8281 10.8232 13.4673 11.1839 13.0224 11.1839C12.5775 11.1839 12.2167 10.8232 12.2167 10.3782C12.2167 9.93331 12.5775 9.57257 13.0224 9.57257Z" fill="#8A8A8A"/>
</svg>
