<svg width="21" height="21" viewBox="0 0 21 21" fill="none" xmlns="http://www.w3.org/2000/svg">
<path d="M18.4529 18.9764H2.69838C2.4356 18.9773 2.18386 19.0821 1.99805 19.268C1.81224 19.4538 1.70743 19.7055 1.70648 19.9683V19.9936C1.70505 20.125 1.72962 20.2553 1.77878 20.3771C1.82794 20.4989 1.90072 20.6098 1.99292 20.7033C2.08512 20.7969 2.19492 20.8712 2.316 20.9221C2.43708 20.9731 2.56703 20.9995 2.69838 21H18.4529C18.5832 21 18.7121 20.9743 18.8325 20.9245C18.9528 20.8746 19.0622 20.8016 19.1543 20.7095C19.2464 20.6174 19.3195 20.508 19.3693 20.3877C19.4191 20.2673 19.4448 20.1384 19.4448 20.0081V19.9828C19.4448 19.8525 19.4191 19.7235 19.3693 19.6032C19.3195 19.4828 19.2464 19.3735 19.1543 19.2814C19.0622 19.1893 18.9528 19.1162 18.8325 19.0664C18.7121 19.0165 18.5832 18.9909 18.4529 18.9909V18.9764Z" fill="#8A8A8A"/>
<path opacity="0.3" d="M14.1487 15.3599C13.8967 15.3599 13.6504 15.4345 13.4406 15.5741C13.2309 15.7137 13.0671 15.9122 12.9699 16.1447C12.8727 16.3771 12.8463 16.6331 12.8942 16.8805C12.942 17.1279 13.062 17.3556 13.2389 17.535C13.4158 17.7144 13.6418 17.8376 13.8885 17.8889C14.1351 17.9402 14.3915 17.9175 14.6253 17.8235C14.8591 17.7296 15.0599 17.5686 15.2024 17.3609C15.345 17.1531 15.423 16.9078 15.4265 16.6559C15.4265 16.317 15.2919 15.992 15.0523 15.7523C14.8126 15.5127 14.4876 15.378 14.1487 15.378V15.3599Z" fill="#8A8A8A"/>
<path d="M18.5253 20.9711C18.4608 20.9708 18.3965 20.9635 18.3335 20.9493C18.2162 20.9245 18.105 20.8766 18.0065 20.8083C17.908 20.74 17.824 20.6527 17.7596 20.5516C17.6953 20.4504 17.6517 20.3375 17.6315 20.2193C17.6113 20.1011 17.6149 19.9801 17.642 19.8633C17.8935 18.6868 17.8517 17.4665 17.5202 16.3099C17.1888 15.1534 16.5779 14.0961 15.7415 13.2314C15.6569 13.1466 15.59 13.0459 15.5446 12.9351C15.4992 12.8243 15.4762 12.7056 15.477 12.5858C15.4778 12.4661 15.5024 12.3477 15.5493 12.2375C15.5962 12.1273 15.6645 12.0275 15.7503 11.944C15.836 11.8604 15.9375 11.7946 16.0488 11.7505C16.1602 11.7065 16.2792 11.6849 16.3989 11.6871C16.5186 11.6894 16.6367 11.7153 16.7463 11.7635C16.856 11.8118 16.9549 11.8812 17.0375 11.968C18.0874 13.0497 18.8534 14.3744 19.2671 15.824C19.6808 17.2736 19.7294 18.8031 19.4086 20.276C19.3613 20.4745 19.2483 20.6511 19.088 20.7773C18.9276 20.9034 18.7294 20.9717 18.5253 20.9711ZM2.36175 20.457C2.14562 20.4569 1.93666 20.3795 1.77266 20.2387C1.60865 20.098 1.50044 19.9032 1.46759 19.6896C1.14623 17.5086 1.62296 15.2849 2.81013 13.4273C3.99731 11.5697 5.81514 10.2031 7.92941 9.57872C8.83519 9.31324 9.77694 9.1911 10.7205 9.21671C10.9599 9.22241 11.1873 9.32276 11.3528 9.49579C11.5184 9.66881 11.6086 9.9004 11.6038 10.1398C11.5953 10.3789 11.4936 10.6052 11.3204 10.7703C11.1472 10.9354 10.9163 11.0261 10.677 11.0231C9.60996 10.9973 8.55014 11.2051 7.5718 11.6319C6.59346 12.0588 5.72024 12.6943 5.0133 13.494C4.30635 14.2937 3.78276 15.2383 3.47919 16.2616C3.17562 17.2849 3.09941 18.3622 3.2559 19.4181C3.27389 19.5353 3.26858 19.6549 3.24028 19.77C3.21197 19.8852 3.16122 19.9936 3.09094 20.0891C3.02066 20.1846 2.93222 20.2653 2.8307 20.3266C2.72918 20.3878 2.61656 20.4285 2.49931 20.4462L2.36175 20.457Z" fill="#8A8A8A"/>
<path d="M10.6987 11.0122C9.60972 11.0115 8.54538 10.6879 7.6403 10.0823C6.73523 9.47666 6.03006 8.61626 5.61397 7.60988C5.19789 6.60349 5.08958 5.49632 5.30274 4.42838C5.51589 3.36044 6.04095 2.37969 6.8115 1.61015C7.58205 0.84061 8.56349 0.316849 9.63171 0.105096C10.6999 -0.106657 11.807 0.0031107 12.8128 0.420517C13.8186 0.837923 14.6781 1.54422 15.2825 2.4501C15.887 3.35597 16.2092 4.42073 16.2085 5.50974C16.2056 6.96946 15.624 8.36847 14.5911 9.39998C13.5582 10.4315 12.1585 11.0113 10.6987 11.0122ZM10.6987 1.81365C9.96787 1.81437 9.25362 2.03175 8.64628 2.43832C8.03894 2.84488 7.56576 3.42238 7.28657 4.09782C7.00738 4.77325 6.9347 5.5163 7.07772 6.23303C7.22075 6.94976 7.57305 7.608 8.0901 8.12455C8.60715 8.64109 9.26574 8.99275 9.98261 9.13507C10.6995 9.27739 11.4425 9.20399 12.1176 8.92413C12.7928 8.64428 13.3698 8.17054 13.7758 7.5628C14.1818 6.95506 14.3984 6.2406 14.3984 5.50974C14.3975 4.52914 14.0073 3.58904 13.3135 2.89599C12.6198 2.20295 11.6793 1.81365 10.6987 1.81365Z" fill="#8A8A8A"/>
</svg>
