<svg width="21" height="21" viewBox="0 0 21 21" fill="none" xmlns="http://www.w3.org/2000/svg">
<path d="M18.4529 18.9764H2.69838C2.4356 18.9773 2.18386 19.0821 1.99805 19.268C1.81224 19.4538 1.70743 19.7055 1.70648 19.9683V19.9936C1.70505 20.125 1.72962 20.2553 1.77878 20.3771C1.82794 20.4989 1.90072 20.6098 1.99292 20.7033C2.08512 20.7969 2.19492 20.8712 2.316 20.9221C2.43708 20.9731 2.56703 20.9995 2.69838 21H18.4529C18.5832 21 18.7121 20.9743 18.8325 20.9245C18.9528 20.8746 19.0622 20.8016 19.1543 20.7095C19.2464 20.6174 19.3195 20.508 19.3693 20.3877C19.4191 20.2673 19.4448 20.1384 19.4448 20.0081V19.9828C19.4448 19.8525 19.4191 19.7235 19.3693 19.6032C19.3195 19.4828 19.2464 19.3735 19.1543 19.2814C19.0622 19.1893 18.9528 19.1162 18.8325 19.0664C18.7121 19.0165 18.5832 18.9909 18.4529 18.9909V18.9764Z" fill="#8A8A8A"/>
<path opacity="0.3" d="M14.1486 15.3599C13.8966 15.3599 13.6503 15.4345 13.4406 15.5741C13.2308 15.7137 13.0671 15.9122 12.9698 16.1447C12.8726 16.3771 12.8463 16.6331 12.8941 16.8805C12.942 17.1279 13.0619 17.3556 13.2388 17.535C13.4157 17.7144 13.6417 17.8376 13.8884 17.8889C14.1351 17.9402 14.3914 17.9175 14.6252 17.8235C14.859 17.7296 15.0598 17.5686 15.2024 17.3609C15.345 17.1531 15.4229 16.9078 15.4265 16.6559C15.4265 16.317 15.2919 15.992 15.0522 15.7523C14.8126 15.5127 14.4875 15.378 14.1486 15.378V15.3599Z" fill="#8A8A8A"/>
<path d="M18.5253 20.9711C18.4607 20.9708 18.3964 20.9635 18.3334 20.9493C18.2161 20.9245 18.105 20.8766 18.0064 20.8083C17.9079 20.74 17.824 20.6527 17.7596 20.5516C17.6952 20.4504 17.6516 20.3375 17.6314 20.2193C17.6112 20.1011 17.6148 19.9801 17.642 19.8633C17.8934 18.6868 17.8516 17.4665 17.5202 16.3099C17.1887 15.1534 16.5779 14.0961 15.7414 13.2314C15.6568 13.1466 15.5899 13.0459 15.5445 12.9351C15.4991 12.8243 15.4762 12.7056 15.477 12.5858C15.4778 12.4661 15.5024 12.3477 15.5493 12.2375C15.5962 12.1273 15.6645 12.0275 15.7502 11.944C15.836 11.8604 15.9374 11.7946 16.0488 11.7505C16.1601 11.7065 16.2791 11.6849 16.3988 11.6871C16.5186 11.6894 16.6367 11.7153 16.7463 11.7635C16.8559 11.8118 16.9549 11.8812 17.0374 11.968C18.0873 13.0497 18.8533 14.3744 19.267 15.824C19.6807 17.2736 19.7294 18.8031 19.4086 20.276C19.3612 20.4745 19.2482 20.6511 19.0879 20.7773C18.9276 20.9034 18.7293 20.9717 18.5253 20.9711ZM2.36169 20.457C2.14556 20.4569 1.9366 20.3795 1.77259 20.2387C1.60859 20.098 1.50038 19.9032 1.46753 19.6896C1.14617 17.5086 1.6229 15.2849 2.81007 13.4273C3.99725 11.5697 5.81507 10.2031 7.92935 9.57872C8.83513 9.31324 9.77687 9.1911 10.7204 9.21671C10.9598 9.22241 11.1872 9.32276 11.3528 9.49579C11.5183 9.66881 11.6086 9.9004 11.6037 10.1398C11.5952 10.3789 11.4935 10.6052 11.3203 10.7703C11.1471 10.9354 10.9162 11.0261 10.677 11.0231C9.6099 10.9973 8.55008 11.2051 7.57174 11.6319C6.5934 12.0588 5.72018 12.6943 5.01323 13.494C4.30629 14.2937 3.7827 15.2383 3.47913 16.2616C3.17556 17.2849 3.09935 18.3622 3.25584 19.4181C3.27383 19.5353 3.26852 19.6549 3.24022 19.77C3.21191 19.8852 3.16116 19.9936 3.09088 20.0891C3.02059 20.1846 2.93216 20.2653 2.83064 20.3266C2.72911 20.3878 2.6165 20.4285 2.49925 20.4462L2.36169 20.457Z" fill="#8A8A8A"/>
<path d="M10.6988 11.0122C9.60978 11.0115 8.54544 10.6879 7.64036 10.0823C6.73529 9.47666 6.03012 8.61626 5.61404 7.60988C5.19795 6.60349 5.08964 5.49632 5.3028 4.42838C5.51595 3.36044 6.04101 2.37969 6.81156 1.61015C7.58211 0.84061 8.56355 0.316849 9.63177 0.105096C10.7 -0.106657 11.807 0.0031107 12.8129 0.420517C13.8187 0.837923 14.6782 1.54422 15.2826 2.4501C15.887 3.35597 16.2092 4.42073 16.2085 5.50974C16.2057 6.96946 15.624 8.36847 14.5912 9.39998C13.5583 10.4315 12.1585 11.0113 10.6988 11.0122ZM10.6988 1.81365C9.96793 1.81437 9.25368 2.03175 8.64634 2.43832C8.039 2.84488 7.56583 3.42238 7.28663 4.09782C7.00744 4.77325 6.93476 5.5163 7.07778 6.23303C7.22081 6.94976 7.57311 7.608 8.09016 8.12455C8.60721 8.64109 9.2658 8.99275 9.98267 9.13507C10.6995 9.27739 11.4425 9.20399 12.1177 8.92413C12.7928 8.64428 13.3699 8.17054 13.7758 7.5628C14.1818 6.95506 14.3985 6.2406 14.3985 5.50974C14.3975 4.52914 14.0073 3.58904 13.3136 2.89599C12.6199 2.20295 11.6794 1.81365 10.6988 1.81365Z" fill="#8A8A8A"/>
</svg>
