<svg width="25" height="24" viewBox="0 0 25 24" fill="none" xmlns="http://www.w3.org/2000/svg">
<g clip-path="url(#clip0_368_10310)">
<path d="M12.7694 7.57895C11.3739 7.58028 10.036 8.14059 9.04923 9.13689C8.06249 10.1332 7.50756 11.4841 7.50623 12.8931C7.50789 14.3018 8.06296 15.6524 9.04967 16.6484C10.0364 17.6444 11.3741 18.2046 12.7694 18.2059C14.1644 18.2042 15.5018 17.6439 16.4882 16.648C17.4747 15.652 18.0296 14.3016 18.0312 12.8931C18.0299 11.4843 17.4751 10.1336 16.4887 9.13734C15.5022 8.14107 14.1646 7.58062 12.7694 7.57895ZM21.2677 3.78947C23.3269 3.78947 25.0008 5.46568 25.0008 7.52842V19.0686C25.0008 21.1301 23.3269 22.8076 21.2677 22.8076H3.7331C1.67639 22.8063 0 21.1288 0 19.0674V7.52842C0 5.46568 1.67514 3.78947 3.7331 3.78947H21.2689H21.2677ZM12.7231 16.8493C13.7746 16.8483 14.7827 16.4261 15.5262 15.6753C16.2697 14.9246 16.6879 13.9067 16.6889 12.8451C16.6875 11.7834 16.2691 10.7656 15.5253 10.0151C14.7816 9.26464 13.7733 8.84277 12.7218 8.8421C11.6705 8.84344 10.6627 9.26578 9.91948 10.0165C9.17623 10.7671 8.75826 11.7849 8.75727 12.8463C8.75859 13.9078 9.17688 14.9254 9.92036 15.6758C10.6638 16.4262 11.6718 16.8483 12.7231 16.8493ZM10.0083 0H15.0175C15.3493 4.99204e-09 15.6675 0.133082 15.9021 0.36997C16.1367 0.606858 16.2685 0.928148 16.2685 1.26316C16.2685 1.59817 16.1367 1.91946 15.9021 2.15635C15.6675 2.39323 15.3493 2.52632 15.0175 2.52632H10.0083C9.84402 2.52632 9.68134 2.49364 9.52956 2.43016C9.37777 2.36668 9.23986 2.27364 9.12369 2.15635C9.00752 2.03905 8.91537 1.8998 8.8525 1.74655C8.78963 1.59329 8.75727 1.42904 8.75727 1.26316C8.75727 1.09728 8.78963 0.933022 8.8525 0.779768C8.91537 0.626515 9.00752 0.487265 9.12369 0.36997C9.23986 0.252675 9.37777 0.159632 9.52956 0.0961522C9.68134 0.0326725 9.84402 -2.47181e-09 10.0083 0Z" fill="white"/>
</g>
<defs>
<clipPath id="clip0_368_10310">
<rect width="25" height="24" fill="white"/>
</clipPath>
</defs>
</svg>
