<svg width="13" height="13" viewBox="0 0 13 13" fill="none" xmlns="http://www.w3.org/2000/svg">
<path d="M8.86645 2.69141C9.45298 2.69141 10.0065 2.92246 10.4216 3.34141C11.2862 4.2123 11.2862 5.6291 10.4216 6.49873L6.74126 10.207C6.65874 10.2908 6.56479 10.3086 6.50005 10.3086C6.4353 10.3086 6.34263 10.2908 6.25884 10.207L2.57847 6.49873C1.71392 5.62783 1.71392 4.21104 2.57847 3.34141C2.99487 2.92246 3.54712 2.69141 4.13364 2.69141C4.72017 2.69141 5.27368 2.92246 5.68882 3.34141L6.50005 4.15771L7.31128 3.34141C7.72642 2.92246 8.27993 2.69141 8.86645 2.69141ZM8.86645 1.54883C8.00952 1.54883 7.15386 1.87764 6.50005 2.53652C5.84624 1.87764 4.99058 1.54883 4.13364 1.54883C3.27671 1.54883 2.42104 1.87764 1.76724 2.53652C0.460889 3.85303 0.460889 5.98711 1.76724 7.30488L5.44761 11.0132C5.73833 11.3052 6.11919 11.4512 6.50005 11.4512C6.88091 11.4512 7.26177 11.3052 7.55122 11.0119L11.2316 7.30361C12.5379 5.98711 12.5379 3.85303 11.2316 2.53525C10.5791 1.87764 9.72339 1.54883 8.86645 1.54883Z" fill="#2C2C2C"/>
</svg>
