<svg width="16" height="16" viewBox="0 0 16 16" fill="none" xmlns="http://www.w3.org/2000/svg">
<path d="M13.0845 6.85333H11.4311V3.43111C11.4311 2.52112 11.0696 1.64841 10.4262 1.00495C9.78272 0.361491 8.91001 0 8.00002 0C7.09003 0 6.21732 0.361491 5.57386 1.00495C4.9304 1.64841 4.56891 2.52112 4.56891 3.43111V6.85333H2.92446C2.60385 6.85333 2.29636 6.9807 2.06965 7.20741C1.84294 7.43412 1.71558 7.74161 1.71558 8.06222V14.7911C1.71558 15.1117 1.84294 15.4192 2.06965 15.6459C2.29636 15.8726 2.60385 16 2.92446 16H13.0845C13.4035 15.9977 13.7087 15.8693 13.9335 15.6428C14.1583 15.4163 14.2845 15.1102 14.2845 14.7911V8.06222C14.2845 7.74314 14.1583 7.43699 13.9335 7.21054C13.7087 6.98408 13.4035 6.85568 13.0845 6.85333ZM9.10224 10.96C9.0169 11.2426 8.82587 11.4814 8.56891 11.6267V12.7911C8.56891 12.942 8.50897 13.0867 8.40229 13.1934C8.2956 13.3001 8.1509 13.36 8.00002 13.36C7.84914 13.36 7.70444 13.3001 7.59775 13.1934C7.49107 13.0867 7.43113 12.942 7.43113 12.7911V11.6267C7.19512 11.4837 7.01857 11.2604 6.93389 10.9978C6.84921 10.7352 6.86207 10.4508 6.97011 10.1969C7.07816 9.94301 7.27414 9.73658 7.5221 9.61551C7.77005 9.49443 8.05336 9.46684 8.32002 9.53778C8.61117 9.62444 8.85648 9.82226 9.00288 10.0884C9.14927 10.3546 9.18497 10.6677 9.10224 10.96ZM5.71558 6.85333V3.43111C5.71558 2.82524 5.95626 2.24418 6.38467 1.81576C6.81309 1.38735 7.39415 1.14667 8.00002 1.14667C8.60589 1.14667 9.18695 1.38735 9.61537 1.81576C10.0438 2.24418 10.2845 2.82524 10.2845 3.43111V6.85333H5.71558Z" fill="#8A8A8A"/>
</svg>
