<svg width="18" height="18" viewBox="0 0 18 18" fill="none" xmlns="http://www.w3.org/2000/svg">
<path d="M17.8305 1.97082C17.8783 2.07876 17.9171 2.20469 17.947 2.34861C17.9769 2.49253 17.9918 2.64245 17.9918 2.79836C17.9918 2.95428 17.9619 3.11019 17.9022 3.2661C17.8425 3.42202 17.7469 3.57194 17.6155 3.71586C17.4721 3.85978 17.3437 3.98571 17.2302 4.09365C17.1167 4.20159 17.0181 4.29754 16.9345 4.38149C16.8389 4.47744 16.7493 4.56139 16.6657 4.63335L13.3146 1.2692C13.458 1.13727 13.6282 0.978362 13.8254 0.792464C14.0225 0.606566 14.1868 0.459647 14.3182 0.351707C14.4854 0.219779 14.6586 0.12683 14.8378 0.0728599C15.017 0.0188896 15.1933 -0.0050972 15.3665 0.000899507C15.5397 0.00689621 15.707 0.0338814 15.8683 0.081855C16.0295 0.129829 16.1699 0.183799 16.2894 0.243766C16.5403 0.375693 16.818 0.606566 17.1227 0.936385C17.4273 1.2662 17.6633 1.61101 17.8305 1.97082ZM3.87074 10.75C3.94242 10.678 4.10968 10.5071 4.37251 10.2373C4.63533 9.96742 4.96387 9.6346 5.35811 9.23882L6.66628 7.92554L8.11781 6.46834L11.9706 2.60047L15.3217 5.98261L11.4689 9.85048L10.0353 11.3077C9.55739 11.7754 9.12731 12.2042 8.74501 12.594C8.36272 12.9838 8.04613 13.3046 7.79525 13.5564C7.54436 13.8083 7.39503 13.9522 7.34724 13.9882C7.22778 14.0961 7.09039 14.2101 6.93508 14.33C6.77977 14.45 6.61849 14.5459 6.45124 14.6179C6.28398 14.7018 6.03908 14.8038 5.71651 14.9237C5.39395 15.0436 5.05646 15.1606 4.70403 15.2745C4.3516 15.3884 4.01709 15.4874 3.7005 15.5713C3.38391 15.6553 3.14797 15.7093 2.99266 15.7332C2.6701 15.7692 2.45505 15.7213 2.34753 15.5893C2.24001 15.4574 2.21015 15.2355 2.25793 14.9237C2.28183 14.7558 2.33857 14.5129 2.42817 14.1951C2.51777 13.8773 2.61335 13.5474 2.7149 13.2056C2.81644 12.8638 2.915 12.549 3.01058 12.2612C3.10615 11.9733 3.18381 11.7754 3.24354 11.6675C3.31522 11.4996 3.39586 11.3467 3.48546 11.2087C3.57506 11.0708 3.70349 10.9179 3.87074 10.75Z" fill="black"/>
</svg>
