<svg width="12" height="12" viewBox="0 0 12 12" fill="none" xmlns="http://www.w3.org/2000/svg">
<g clip-path="url(#clip0_368_10324)">
<path d="M5.6435 11.3535L3.793 9.4985H1.001C0.869493 9.4987 0.739237 9.47294 0.617701 9.42271C0.496165 9.37247 0.385738 9.29875 0.292747 9.20575C0.199756 9.11276 0.12603 9.00234 0.0757954 8.8808C0.0255604 8.75926 -0.000196383 8.62901 1.12736e-06 8.4975L0.00500113 1.5005C0.00500113 0.9465 0.450001 0.5 1.006 0.5H10.9995C11.5525 0.5 12.0005 0.9465 12 1.501L11.995 8.4985C11.995 9.051 11.547 9.4985 10.9945 9.4985H8.208L6.35 11.3535C6.30362 11.3999 6.24855 11.4367 6.18793 11.4618C6.12732 11.4869 6.06236 11.4999 5.99675 11.4999C5.93114 11.4999 5.86618 11.4869 5.80557 11.4618C5.74496 11.4367 5.68989 11.3999 5.6435 11.3535ZM10.9955 8.4975L11 1.5005C11 1.5005 1.005 1.499 1.005 1.501C1.005 1.501 1.0005 8.498 1.0015 8.498H4C4.1325 8.498 4.26 8.5505 4.3535 8.6445L5.998 10.2925L7.648 8.644C7.69444 8.59764 7.74957 8.56088 7.81022 8.53583C7.87088 8.51078 7.93588 8.49792 8.0015 8.498H10.9955V8.4975ZM3.25 6C3.05109 6 2.86032 5.92098 2.71967 5.78033C2.57902 5.63968 2.5 5.44891 2.5 5.25C2.5 5.05109 2.57902 4.86032 2.71967 4.71967C2.86032 4.57902 3.05109 4.5 3.25 4.5C3.44891 4.5 3.63968 4.57902 3.78033 4.71967C3.92098 4.86032 4 5.05109 4 5.25C4 5.44891 3.92098 5.63968 3.78033 5.78033C3.63968 5.92098 3.44891 6 3.25 6ZM6 6C5.80109 6 5.61032 5.92098 5.46967 5.78033C5.32902 5.63968 5.25 5.44891 5.25 5.25C5.25 5.05109 5.32902 4.86032 5.46967 4.71967C5.61032 4.57902 5.80109 4.5 6 4.5C6.19891 4.5 6.38968 4.57902 6.53033 4.71967C6.67098 4.86032 6.75 5.05109 6.75 5.25C6.75 5.44891 6.67098 5.63968 6.53033 5.78033C6.38968 5.92098 6.19891 6 6 6ZM8.75 6C8.55109 6 8.36032 5.92098 8.21967 5.78033C8.07902 5.63968 8 5.44891 8 5.25C8 5.05109 8.07902 4.86032 8.21967 4.71967C8.36032 4.57902 8.55109 4.5 8.75 4.5C8.94891 4.5 9.13968 4.57902 9.28033 4.71967C9.42098 4.86032 9.5 5.05109 9.5 5.25C9.5 5.44891 9.42098 5.63968 9.28033 5.78033C9.13968 5.92098 8.94891 6 8.75 6Z" fill="#2C2C2C"/>
</g>
<defs>
<clipPath id="clip0_368_10324">
<rect width="12" height="12" fill="white"/>
</clipPath>
</defs>
</svg>
