<svg width="13" height="13" viewBox="0 0 13 13" fill="none" xmlns="http://www.w3.org/2000/svg">
<g clip-path="url(#clip0_368_10320)">
<path d="M11.7054 5.5738L8.31296 1.98905V4.34097H7.22963C4.05167 4.34097 1.45004 6.64522 1.11908 9.58972C2.58104 7.89267 4.82517 6.81042 7.2215 6.81042H8.30158L8.30863 9.16126L11.7049 5.5738H11.7054ZM6.13817 7.9788C3.4125 8.41159 1.105 10.4325 0.599625 13C0.204612 12.1284 0.000182573 11.1826 0 10.2256C0 6.37655 3.237 3.25763 7.22963 3.25763V0.520049C7.21982 0.450276 7.22663 0.379175 7.2495 0.312533C7.27238 0.245891 7.31066 0.185593 7.36125 0.136549C7.4547 0.0485659 7.57821 -0.000427246 7.70656 -0.000427246C7.83491 -0.000427246 7.95842 0.0485659 8.05188 0.136549L12.8608 5.21847C12.9082 5.26378 12.9452 5.31892 12.969 5.38002C12.9929 5.44112 13.0031 5.50671 12.9989 5.57217C13.0031 5.63772 12.9929 5.70339 12.969 5.76458C12.9452 5.82577 12.9082 5.88101 12.8608 5.92642L8.07842 10.9802C8.03514 11.0322 7.98141 11.0744 7.92072 11.1043C7.86003 11.1342 7.79373 11.1509 7.72614 11.1535C7.65855 11.156 7.59118 11.1443 7.52841 11.1191C7.46564 11.0939 7.40887 11.0558 7.36179 11.0073C7.311 10.9583 7.27254 10.8981 7.24956 10.8314C7.22659 10.7647 7.21975 10.6936 7.22963 10.6238L7.2215 7.89322C6.88025 7.89322 6.54171 7.91867 6.20967 7.96742L6.13817 7.97826V7.9788Z" fill="#2C2C2C"/>
</g>
<defs>
<clipPath id="clip0_368_10320">
<rect width="13" height="13" fill="white"/>
</clipPath>
</defs>
</svg>
