<svg width="23" height="23" viewBox="0 0 23 23" fill="none" xmlns="http://www.w3.org/2000/svg">
<g clip-path="url(#clip0_491_158)">
<path d="M22.297 11.0755L12.4501 1.23085C12.1896 0.970302 11.8437 0.851259 11.5 0.864735C11.1564 0.851259 10.8105 0.970302 10.5499 1.23085L0.70304 11.0755C0.206653 11.5696 0.206653 12.3805 0.70304 12.8768C1.19718 13.3732 2.00802 13.3732 2.50441 12.8768L11.5 3.88124L20.4956 12.8768C20.992 13.3732 21.8006 13.3732 22.297 12.8768C22.7911 12.3805 22.7911 11.5719 22.297 11.0755Z" fill="#8A8A8A"/>
<path d="M3.24335 13.5686V21.1357C3.24335 21.7557 3.65663 22.1352 4.27655 22.1352H8.61151V16.2864C8.61151 15.5834 9.13036 15.0825 9.83563 15.0825H13.1172C13.8202 15.0825 14.4514 15.5834 14.4514 16.2864V22.1352H18.6763C19.2962 22.1352 19.7297 21.7557 19.7297 21.1357V13.3732L11.5853 5.24237L3.24335 13.5686Z" fill="#8A8A8A"/>
</g>
<defs>
<clipPath id="clip0_491_158">
<rect width="23" height="23" fill="white"/>
</clipPath>
</defs>
</svg>
